<?xml version="1.0" encoding="UTF-8" standalone="no"?>
<!-- Created with Inkscape (http://www.inkscape.org/) -->

<svg
   width="16.933332mm"
   height="16.933332mm"
   viewBox="0 0 16.933332 16.933332"
   version="1.1"
   id="svg1"
   xml:space="preserve"
   xmlns="http://www.w3.org/2000/svg"
   xmlns:svg="http://www.w3.org/2000/svg"><defs
     id="defs1"><linearGradient
       id="paint0_linear_914_148"
       x1="25"
       y1="0"
       x2="70.841202"
       y2="19.3393"
       gradientUnits="userSpaceOnUse"><stop
         stop-color="white"
         id="stop11-4" /><stop
         offset="1"
         id="stop12-5" /></linearGradient><linearGradient
       id="paint2_linear_914_148"
       x1="0"
       y1="41"
       x2="22.777201"
       y2="60.806198"
       gradientUnits="userSpaceOnUse"><stop
         stop-color="white"
         id="stop15-8" /><stop
         offset="1"
         id="stop16" /></linearGradient><linearGradient
       id="paint3_linear_914_148"
       x1="7"
       y1="17"
       x2="45.973202"
       y2="37.7304"
       gradientUnits="userSpaceOnUse"><stop
         stop-color="white"
         id="stop17" /><stop
         offset="1"
         id="stop18" /></linearGradient><linearGradient
       id="paint4_linear_914_148"
       x1="10"
       y1="23"
       x2="41.282101"
       y2="37.496601"
       gradientUnits="userSpaceOnUse"><stop
         stop-color="white"
         id="stop19" /><stop
         offset="1"
         id="stop20" /></linearGradient><clipPath
       id="clip0_914_148"><rect
         width="64"
         height="64"
         fill="#ffffff"
         id="rect20"
         x="0"
         y="0" /></clipPath></defs><g
     id="layer1"
     transform="translate(-147.73992,-73.786327)"><g
       style="fill:none"
       id="g2"
       transform="matrix(0.26458333,0,0,0.26458333,147.73992,73.786327)"><g
         clip-path="url(#clip0_914_148)"
         id="g11"><path
           fill-rule="evenodd"
           clip-rule="evenodd"
           d="m 36,0 c 5.0353,0 9.2803,3.38318 10.586,8.00039 L 49,8 c 1.6569,0 3,1.34315 3,3 V 64 H 25 V 11 c 0,-1.65685 1.3431,-3 3,-3 h 2 V 0 Z"
           fill="#cfd2d5"
           id="path1-9" /><path
           fill-rule="evenodd"
           clip-rule="evenodd"
           d="m 36,0 c 5.0353,0 9.2803,3.38318 10.586,8.00039 L 49,8 c 1.6569,0 3,1.34315 3,3 V 64 H 25 V 11 c 0,-1.65685 1.3431,-3 3,-3 h 2 V 0 Z"
           fill="url(#paint0_linear_914_148)"
           fill-opacity="0.4"
           style="mix-blend-mode:soft-light;fill:url(#paint0_linear_914_148)"
           id="path2-9" /><path
           fill-rule="evenodd"
           clip-rule="evenodd"
           d="m 50,26.5 c 4.6598,0 8.5752,3.1872 9.6851,7.5005 L 62,34 c 1.1046,0 2,0.8954 2,2 V 64 H 36 V 36 c 0,-1.1046 0.8954,-2 2,-2 l 2.3149,5e-4 C 41.4248,29.6872 45.3402,26.5 50,26.5 Z"
           fill="#017de8"
           id="path3-9"
           style="fill:#04a55d;fill-opacity:1" /><path
           fill-rule="evenodd"
           clip-rule="evenodd"
           d="M 3,41 H 20 V 64 H 0 V 44 c 0,-1.6569 1.34315,-3 3,-3 z"
           fill="#cfd2d5"
           id="path5-6" /><path
           fill-rule="evenodd"
           clip-rule="evenodd"
           d="M 3,41 H 20 V 64 H 0 V 44 c 0,-1.6569 1.34315,-3 3,-3 z"
           fill="url(#paint2_linear_914_148)"
           fill-opacity="0.4"
           style="mix-blend-mode:soft-light;fill:url(#paint2_linear_914_148)"
           id="path6-8" /><path
           fill-rule="evenodd"
           clip-rule="evenodd"
           d="m 10,17 h 19 c 1.6569,0 3,1.3431 3,3 V 64 H 7 V 20 c 0,-1.6569 1.34315,-3 3,-3 z"
           fill="#e7e8ea"
           id="path7-6" /><path
           fill-rule="evenodd"
           clip-rule="evenodd"
           d="m 10,17 h 19 c 1.6569,0 3,1.3431 3,3 V 64 H 7 V 20 c 0,-1.6569 1.34315,-3 3,-3 z"
           fill="url(#paint3_linear_914_148)"
           fill-opacity="0.4"
           style="mix-blend-mode:soft-light;fill:url(#paint3_linear_914_148)"
           id="path8-7" /><path
           fill-rule="evenodd"
           clip-rule="evenodd"
           d="m 19.5,55 c 1.933,0 3.5,1.567 3.5,3.5 V 64 H 16 V 58.5 C 16,56.567 17.567,55 19.5,55 Z M 28,47 c 0.5523,0 1,0.4477 1,1 0,0.5523 -0.4477,1 -1,1 H 11 c -0.5523,0 -1,-0.4477 -1,-1 0,-0.5523 0.4477,-1 1,-1 z m 0,-6 c 0.5523,0 1,0.4477 1,1 0,0.5523 -0.4477,1 -1,1 H 11 c -0.5523,0 -1,-0.4477 -1,-1 0,-0.5523 0.4477,-1 1,-1 z m 0,-6 c 0.5523,0 1,0.4477 1,1 0,0.5523 -0.4477,1 -1,1 H 11 c -0.5523,0 -1,-0.4477 -1,-1 0,-0.5523 0.4477,-1 1,-1 z m 0,-6 c 0.5523,0 1,0.4477 1,1 0,0.5523 -0.4477,1 -1,1 H 11 c -0.5523,0 -1,-0.4477 -1,-1 0,-0.5523 0.4477,-1 1,-1 z m 0,-6 c 0.5523,0 1,0.4477 1,1 0,0.5523 -0.4477,1 -1,1 H 11 c -0.5523,0 -1,-0.4477 -1,-1 0,-0.5523 0.4477,-1 1,-1 z"
           fill="#cfd2d5"
           id="path9" /><path
           fill-rule="evenodd"
           clip-rule="evenodd"
           d="m 19.5,55 c 1.933,0 3.5,1.567 3.5,3.5 V 64 H 16 V 58.5 C 16,56.567 17.567,55 19.5,55 Z M 28,47 c 0.5523,0 1,0.4477 1,1 0,0.5523 -0.4477,1 -1,1 H 11 c -0.5523,0 -1,-0.4477 -1,-1 0,-0.5523 0.4477,-1 1,-1 z m 0,-6 c 0.5523,0 1,0.4477 1,1 0,0.5523 -0.4477,1 -1,1 H 11 c -0.5523,0 -1,-0.4477 -1,-1 0,-0.5523 0.4477,-1 1,-1 z m 0,-6 c 0.5523,0 1,0.4477 1,1 0,0.5523 -0.4477,1 -1,1 H 11 c -0.5523,0 -1,-0.4477 -1,-1 0,-0.5523 0.4477,-1 1,-1 z m 0,-6 c 0.5523,0 1,0.4477 1,1 0,0.5523 -0.4477,1 -1,1 H 11 c -0.5523,0 -1,-0.4477 -1,-1 0,-0.5523 0.4477,-1 1,-1 z m 0,-6 c 0.5523,0 1,0.4477 1,1 0,0.5523 -0.4477,1 -1,1 H 11 c -0.5523,0 -1,-0.4477 -1,-1 0,-0.5523 0.4477,-1 1,-1 z"
           fill="url(#paint4_linear_914_148)"
           fill-opacity="0.4"
           style="mix-blend-mode:soft-light;fill:url(#paint4_linear_914_148)"
           id="path10" /><path
           fill-rule="evenodd"
           clip-rule="evenodd"
           d="m 50.5,55 c 3.0376,0 5.5,2.4624 5.5,5.5 V 64 H 45 V 60.5 C 45,57.4624 47.4624,55 50.5,55 Z M 42,47 c 1.1046,0 2,0.8954 2,2 v 2 c 0,1.1046 -0.8954,2 -2,2 h -2 c -1.1046,0 -2,-0.8954 -2,-2 v -2 c 0,-1.1046 0.8954,-2 2,-2 z m 18,0 c 1.1046,0 2,0.8954 2,2 v 2 c 0,1.1046 -0.8954,2 -2,2 h -2 c -1.1046,0 -2,-0.8954 -2,-2 v -2 c 0,-1.1046 0.8954,-2 2,-2 z m -9,0 c 1.1046,0 2,0.8954 2,2 v 2 c 0,1.1046 -0.8954,2 -2,2 h -2 c -1.1046,0 -2,-0.8954 -2,-2 v -2 c 0,-1.1046 0.8954,-2 2,-2 z m 0,-10 c 1.1046,0 2,0.8954 2,2 v 2 c 0,1.1046 -0.8954,2 -2,2 h -2 c -1.1046,0 -2,-0.8954 -2,-2 v -2 c 0,-1.1046 0.8954,-2 2,-2 z m -9,0 c 1.1046,0 2,0.8954 2,2 v 2 c 0,1.1046 -0.8954,2 -2,2 h -2 c -1.1046,0 -2,-0.8954 -2,-2 v -2 c 0,-1.1046 0.8954,-2 2,-2 z m 18,0 c 1.1046,0 2,0.8954 2,2 v 2 c 0,1.1046 -0.8954,2 -2,2 h -2 c -1.1046,0 -2,-0.8954 -2,-2 v -2 c 0,-1.1046 0.8954,-2 2,-2 z"
           fill="#ffffff"
           id="path11" /></g></g></g></svg>
