<?xml version="1.0" encoding="UTF-8" standalone="no"?>
<!-- Created with Inkscape (http://www.inkscape.org/) -->

<svg
   width="16.933413mm"
   height="16.933332mm"
   viewBox="0 0 16.933413 16.933332"
   version="1.1"
   id="svg1"
   xml:space="preserve"
   xmlns="http://www.w3.org/2000/svg"
   xmlns:svg="http://www.w3.org/2000/svg"><defs
     id="defs1"><linearGradient
       id="paint0_linear_905_5834"
       x1="17.8701"
       y1="8.0542002"
       x2="72.743301"
       y2="53.348301"
       gradientUnits="userSpaceOnUse"><stop
         stop-color="white"
         id="stop8-0" /><stop
         offset="1"
         id="stop9-2" /></linearGradient><linearGradient
       id="paint1_linear_905_5834"
       x1="0"
       y1="0"
       x2="60.248501"
       y2="42.410099"
       gradientUnits="userSpaceOnUse"><stop
         stop-color="white"
         id="stop10-49" /><stop
         offset="1"
         id="stop11-44" /></linearGradient><linearGradient
       id="paint2_linear_905_5834"
       x1="6.9023399"
       y1="7.8867202"
       x2="38.4468"
       y2="39.439301"
       gradientUnits="userSpaceOnUse"><stop
         stop-color="white"
         id="stop12-3" /><stop
         offset="1"
         id="stop13-0" /></linearGradient></defs><g
     id="layer1"
     transform="translate(-83.331022,-84.125677)"><g
       style="fill:none"
       id="g10"
       transform="matrix(0.26458333,0,0,0.26458333,83.331022,84.125677)"><g
         id="Group"
         clip-path="url(#clipPath15)"><g
           id="Vector"><path
             fill-rule="evenodd"
             clip-rule="evenodd"
             d="M 34.393,8.21886 60.4926,15.211 c 2.5225,0.6781 4.0198,3.2685 3.3465,5.7897 L 53.2709,60.4345 c -0.6548,2.452 -3.125,3.9349 -5.5814,3.3951 L 47.479,63.7784 c -7e-4,-2e-4 -0.0015,-4e-4 -0.0016,-0.0028 L 21.3778,56.7835 C 18.8553,56.1054 17.358,53.515 18.0313,50.9938 L 28.5995,11.56 c 0.6549,-2.45196 3.125,-3.9349 5.5815,-3.39513 l 0.2104,0.05125 c 8e-4,1.9e-4 0.0015,3.9e-4 0.0016,0.00274 z"
             fill="#cfd2d5"
             id="path1-6" /><path
             fill-rule="evenodd"
             clip-rule="evenodd"
             d="M 34.393,8.21886 60.4926,15.211 c 2.5225,0.6781 4.0198,3.2685 3.3465,5.7897 L 53.2709,60.4345 c -0.6548,2.452 -3.125,3.9349 -5.5814,3.3951 L 47.479,63.7784 c -7e-4,-2e-4 -0.0015,-4e-4 -0.0016,-0.0028 L 21.3778,56.7835 C 18.8553,56.1054 17.358,53.515 18.0313,50.9938 L 28.5995,11.56 c 0.6549,-2.45196 3.125,-3.9349 5.5815,-3.39513 l 0.2104,0.05125 c 8e-4,1.9e-4 0.0015,3.9e-4 0.0016,0.00274 z"
             fill="url(#paint0_linear_905_5834)"
             fill-opacity="0.4"
             style="mix-blend-mode:soft-light;fill:url(#paint0_linear_905_5834)"
             id="path2-4" /></g><g
           id="Vector_2"><path
             fill-rule="evenodd"
             clip-rule="evenodd"
             d="M 5.91438,0 H 39.1365 c 3.2665,0 5.9144,2.64496 5.9144,5.90769 V 58.0923 C 45.0509,61.355 42.403,64 39.1365,64 H 5.91438 C 2.64796,64 0,61.355 0,58.0923 V 5.90769 C 0,2.64496 2.64796,0 5.91438,0 Z"
             fill="#e7e8ea"
             id="path3-7" /><path
             fill-rule="evenodd"
             clip-rule="evenodd"
             d="M 5.91438,0 H 39.1365 c 3.2665,0 5.9144,2.64496 5.9144,5.90769 V 58.0923 C 45.0509,61.355 42.403,64 39.1365,64 H 5.91438 C 2.64796,64 0,61.355 0,58.0923 V 5.90769 C 0,2.64496 2.64796,0 5.91438,0 Z"
             fill="url(#paint1_linear_905_5834)"
             fill-opacity="0.4"
             style="mix-blend-mode:soft-light;fill:url(#paint1_linear_905_5834)"
             id="path4-5" /></g><g
           id="Vector_3"><path
             fill-rule="evenodd"
             clip-rule="evenodd"
             d="m 28.5948,35.4927 c 1.0888,0 1.9714,0.8816 1.9714,1.9692 0,1.0382 -0.8042,1.8887 -1.8243,1.9638 l -0.1471,0.0054 H 8.87438 c -1.0888,0 -1.97146,-0.8816 -1.97146,-1.9692 0,-1.0381 0.80424,-1.8886 1.82433,-1.9638 l 0.14713,-0.0054 z m 7.8881,-6.9009 c 1.0888,0 1.9715,0.8817 1.9715,1.9692 0,1.0382 -0.8043,1.8887 -1.8244,1.9639 l -0.1471,0.0054 H 8.87438 c -1.0888,0 -1.97146,-0.8817 -1.97146,-1.9693 0,-1.0381 0.80424,-1.8886 1.82433,-1.9638 L 8.87438,28.5918 Z M 34.512,7.88672 c 2.1776,0 3.943,1.76331 3.943,3.93848 v 7.8965 c 0,2.1751 -1.7654,3.9385 -3.943,3.9385 H 10.8453 c -2.17765,0 -3.94296,-1.7634 -3.94296,-3.9385 v -7.8965 c 0,-2.17517 1.76531,-3.93848 3.94296,-3.93848 z"
             fill="#cfd2d5"
             id="path5-0" /><path
             fill-rule="evenodd"
             clip-rule="evenodd"
             d="m 28.5948,35.4927 c 1.0888,0 1.9714,0.8816 1.9714,1.9692 0,1.0382 -0.8042,1.8887 -1.8243,1.9638 l -0.1471,0.0054 H 8.87438 c -1.0888,0 -1.97146,-0.8816 -1.97146,-1.9692 0,-1.0381 0.80424,-1.8886 1.82433,-1.9638 l 0.14713,-0.0054 z m 7.8881,-6.9009 c 1.0888,0 1.9715,0.8817 1.9715,1.9692 0,1.0382 -0.8043,1.8887 -1.8244,1.9639 l -0.1471,0.0054 H 8.87438 c -1.0888,0 -1.97146,-0.8817 -1.97146,-1.9693 0,-1.0381 0.80424,-1.8886 1.82433,-1.9638 L 8.87438,28.5918 Z M 34.512,7.88672 c 2.1776,0 3.943,1.76331 3.943,3.93848 v 7.8965 c 0,2.1751 -1.7654,3.9385 -3.943,3.9385 H 10.8453 c -2.17765,0 -3.94296,-1.7634 -3.94296,-3.9385 v -7.8965 c 0,-2.17517 1.76531,-3.93848 3.94296,-3.93848 z"
             fill="url(#paint2_linear_905_5834)"
             fill-opacity="0.4"
             style="mix-blend-mode:soft-light;fill:url(#paint2_linear_905_5834)"
             id="path6-4" /></g><g
           id="Vector_4"><path
             d="m 45.0508,44 c 7.1879,0 13.0147,-5.8203 13.0147,-13 0,-7.1797 -5.8268,-13 -13.0147,-13 -7.1878,0 -13.0147,5.8203 -13.0147,13 0,7.1797 5.8269,13 13.0147,13 z"
             fill="#017de8"
             id="path7-8"
             style="fill:#04a55d;fill-opacity:1" /></g><path
           id="Vector_5"
           d="m 49.0429,25.7002 c 0.5772,-0.5771 1.5134,-0.5775 2.0911,-10e-4 0.5416,0.5404 0.5758,1.3961 0.1024,1.9764 l -0.1014,0.1123 -7.6786,7.6771 c -0.5414,0.5414 -1.3988,0.5752 -1.9797,0.1015 L 41.3644,35.465 38.4755,32.5767 c -0.5771,-0.577 -0.5767,-1.5121 0.001,-2.0886 0.5416,-0.5405 1.3983,-0.5739 1.9788,-0.1005 l 0.1123,0.1014 1.8425,1.8422 z"
           fill="#ffffff" /></g></g></g></svg>
