<?xml version="1.0" encoding="UTF-8" standalone="no"?>
<!-- Created with Inkscape (http://www.inkscape.org/) -->

<svg
   width="16.933332mm"
   height="16.933332mm"
   viewBox="0 0 16.933332 16.933332"
   version="1.1"
   id="svg1"
   xml:space="preserve"
   xmlns="http://www.w3.org/2000/svg"
   xmlns:svg="http://www.w3.org/2000/svg"><defs
     id="defs1"><linearGradient
       id="paint0_linear_1606_502"
       x1="0"
       y1="0"
       x2="64"
       y2="64"
       gradientUnits="userSpaceOnUse"><stop
         stop-color="white"
         id="stop4" /><stop
         offset="1"
         id="stop5" /></linearGradient><clipPath
       id="clip0_1606_502"><rect
         width="64"
         height="64"
         fill="#ffffff"
         id="rect7"
         x="0"
         y="0" /></clipPath></defs><g
     id="layer1"
     transform="translate(-51.111174,-73.786327)"><g
       style="fill:none"
       id="g3"
       transform="matrix(0.26458333,0,0,0.26458333,51.111174,73.786327)"><g
         clip-path="url(#clip0_1606_502)"
         id="g4"><path
           d="M 32,64 C 49.6731,64 64,49.6731 64,32 64,14.3269 49.6731,0 32,0 14.3269,0 0,14.3269 0,32 0,49.6731 14.3269,64 32,64 Z"
           fill="#e7e8ea"
           id="path1-4" /><path
           d="M 32,64 C 49.6731,64 64,49.6731 64,32 64,14.3269 49.6731,0 32,0 14.3269,0 0,14.3269 0,32 0,49.6731 14.3269,64 32,64 Z"
           fill="url(#paint0_linear_1606_502)"
           fill-opacity="0.4"
           style="mix-blend-mode:soft-light;fill:url(#paint0_linear_1606_502)"
           id="path2-8" /><path
           d="m 33.9597,12 h -3.3602 v 3.1761 c -4.8331,0.2301 -10.2646,3.6363 -10.2646,9.6662 0,6.1681 4.741,8.1934 10.0345,9.6203 v 8.0552 c -2.0253,-0.046 -4.8792,-1.3809 -6.5363,-3.176 -1.565,1.7031 -3.2221,3.4062 -4.8331,5.0633 3.038,2.7157 7.4108,4.0966 11.3694,4.2347 V 52 h 3.4062 v -3.3602 c 5.3855,-0.1841 10.6329,-3.3602 10.6329,-10.0805 0,-6.5823 -5.7077,-8.6076 -10.4488,-10.0346 V 21.16 c 1.9333,0.046 4.3268,0.9666 5.8458,2.4856 1.519,-1.6571 2.992,-3.3142 4.4649,-5.0173 C 41.4166,16.3268 37.412,15.2221 33.9597,15.13 Z m -3.3602,15.7422 c -1.9332,-0.5063 -3.2221,-1.4729 -3.2221,-3.4062 0,-2.0253 1.5651,-3.084 3.2221,-3.2681 z m 3.1761,7.5489 c 1.9333,0.5984 3.3602,1.5651 3.3602,3.6824 0,2.1174 -1.2888,3.4983 -3.3602,3.5904 z"
           fill="#017de8"
           id="path3-8"
           style="fill:#04a55d;fill-opacity:1" /></g></g></g></svg>
