<?xml version="1.0" encoding="UTF-8" standalone="no"?>
<!-- Created with Inkscape (http://www.inkscape.org/) -->

<svg
   width="17.066303mm"
   height="17.065634mm"
   viewBox="0 0 17.066303 17.065634"
   version="1.1"
   id="svg1"
   xml:space="preserve"
   xmlns:inkscape="http://www.inkscape.org/namespaces/inkscape"
   xmlns:sodipodi="http://sodipodi.sourceforge.net/DTD/sodipodi-0.dtd"
   xmlns="http://www.w3.org/2000/svg"
   xmlns:svg="http://www.w3.org/2000/svg"><sodipodi:namedview
     id="namedview1"
     pagecolor="#ffffff"
     bordercolor="#000000"
     borderopacity="0.25"
     inkscape:showpageshadow="2"
     inkscape:pageopacity="0.0"
     inkscape:pagecheckerboard="0"
     inkscape:deskcolor="#d1d1d1"
     inkscape:document-units="mm" /><defs
     id="defs1" /><g
     inkscape:label="Layer 1"
     inkscape:groupmode="layer"
     id="layer1"
     transform="translate(-83.797686,-125.59143)"><g
       style="fill:#d4af37;fill-opacity:1"
       id="g1"
       transform="matrix(0.26458333,0,0,0.26458333,82.80705,124.60093)"
       inkscape:transform-center-x="15.709581"
       inkscape:transform-center-y="1.1856287"
       inkscape:export-filename="favi.svg"
       inkscape:export-xdpi="96"
       inkscape:export-ydpi="96"><path
         d="m 39.1539,48.7238 h -5.64 c -3.99,0 -7.26,-3.36 -7.26,-7.5 0,-1.23 1.02,-2.25 2.25,-2.25 1.23,0 2.25,1.02 2.25,2.25 0,1.65 1.23,3 2.76,3 h 5.64 c 1.17,0 2.1,-1.05 2.1,-2.34 0,-1.62 -0.45,-1.86 -1.47,-2.22 l -9.03,-3.15 c -1.92,-0.69 -4.5,-2.07 -4.5,-6.48 0,-3.75 2.97,-6.84 6.6,-6.84 h 5.64 c 3.99,0 7.26,3.36 7.26,7.5 0,1.23 -1.02,2.25 -2.25,2.25 -1.23,0 -2.25,-1.02 -2.25,-2.25 0,-1.65 -1.23,-3 -2.76,-3 h -5.64 c -1.17,0 -2.1,1.05 -2.1,2.34 0,1.62 0.45,1.86 1.47,2.22 l 9.03,3.15 c 1.92,0.69 4.5,2.07 4.5,6.48 0,3.78 -2.97,6.84 -6.6,6.84 z"
         fill="#df4a00"
         id="path1"
         style="fill:#d4af37;fill-opacity:1" /><path
         d="m 35.9902,51.772 c -1.23,0 -2.25,-1.02 -2.25,-2.25 v -27 c 0,-1.23 1.02,-2.25 2.25,-2.25 1.23,0 2.25,1.02 2.25,2.25 v 27 c 0,1.23 -1.02,2.25 -2.25,2.25 z"
         fill="#df4a00"
         id="path2"
         style="fill:#d4af37;fill-opacity:1" /><path
         d="m 35.9941,68.2437 c -17.79,0 -32.24996,-14.46 -32.24996,-32.25 0,-17.79 14.45996,-32.25005 32.24996,-32.25005 1.23,0 2.25,1.02 2.25,2.25 0,1.23 -1.02,2.25 -2.25,2.25 -15.3,0 -27.74996,12.45005 -27.74996,27.75005 0,15.3 12.44996,27.75 27.74996,27.75 15.3001,0 27.7501,-12.45 27.7501,-27.75 0,-1.23 1.02,-2.25 2.25,-2.25 1.23,0 2.25,1.02 2.25,2.25 0,17.79 -14.46,32.25 -32.2501,32.25 z"
         fill="#df4a00"
         id="path3"
         style="fill:#d4af37;fill-opacity:1" /><path
         d="m 65.9805,20.2437 c -1.23,0 -2.25,-1.02 -2.25,-2.25 V 8.24365 h -9.75 c -1.23,0 -2.25,-1.02 -2.25,-2.25 0,-1.23 1.02,-2.25 2.25,-2.25 h 12 c 1.23,0 2.25,1.02 2.25,2.25 V 17.9937 c 0,1.23 -1.02,2.25 -2.25,2.25 z"
         fill="#df4a00"
         id="path4"
         style="fill:#d4af37;fill-opacity:1" /><path
         d="m 51.0042,23.2361 c -0.57,0 -1.14,-0.21 -1.59,-0.66 -0.87,-0.87 -0.87,-2.3099 0,-3.1799 l 15,-15.00005 c 0.87,-0.87 2.31,-0.87 3.18,0 0.87,0.87 0.87,2.31 0,3.17999 l -15,14.99996 c -0.45,0.45 -1.02,0.66 -1.59,0.66 z"
         fill="#df4a00"
         id="path5"
         style="fill:#d4af37;fill-opacity:1" /></g></g></svg>
