<?xml version="1.0" encoding="UTF-8" standalone="no"?>
<!-- Created with Inkscape (http://www.inkscape.org/) -->

<svg
   width="13.49375mm"
   height="16.71176mm"
   viewBox="0 0 13.49375 16.71176"
   version="1.1"
   id="svg1"
   xml:space="preserve"
   xmlns:xlink="http://www.w3.org/1999/xlink"
   xmlns="http://www.w3.org/2000/svg"
   xmlns:svg="http://www.w3.org/2000/svg"><defs
     id="defs1"><linearGradient
       id="paint0_linear_922_7166"
       x1="6.5"
       y1="0"
       x2="57.5"
       y2="51"
       gradientUnits="userSpaceOnUse"><stop
         stop-color="white"
         id="stop6-7" /><stop
         offset="1"
         id="stop7-4" /></linearGradient><linearGradient
       id="paint2_linear_922_7166"
       x1="18"
       y1="51.472698"
       x2="26.312099"
       y2="71.382202"
       gradientUnits="userSpaceOnUse"><stop
         stop-color="white"
         id="stop10-4" /><stop
         offset="1"
         id="stop11-3" /></linearGradient><linearGradient
       xlink:href="#paint0_linear_922_7166"
       id="linearGradient12"
       gradientUnits="userSpaceOnUse"
       x1="6.5"
       y1="0"
       x2="57.5"
       y2="51" /><linearGradient
       xlink:href="#paint2_linear_922_7166"
       id="linearGradient14"
       gradientUnits="userSpaceOnUse"
       x1="18"
       y1="51.472698"
       x2="26.312099"
       y2="71.382202" /></defs><g
     id="layer1"
     transform="translate(-177.69031,-33.515313)"><g
       style="fill:none"
       id="g8"
       transform="matrix(0.26458333,0,0,0.26458333,175.97052,33.515313)"><path
         d="M 32,51 C 46.0833,51 57.5,39.5833 57.5,25.5 57.5,11.4167 46.0833,0 32,0 17.9167,0 6.5,11.4167 6.5,25.5 6.5,39.5833 17.9167,51 32,51 Z"
         fill="#e7e8ea"
         id="path1-98" /><path
         d="M 32,51 C 46.0833,51 57.5,39.5833 57.5,25.5 57.5,11.4167 46.0833,0 32,0 17.9167,0 6.5,11.4167 6.5,25.5 6.5,39.5833 17.9167,51 32,51 Z"
         fill="url(#paint0_linear_922_7166)"
         fill-opacity="0.4"
         style="mix-blend-mode:soft-light;fill:url(#linearGradient12)"
         id="path2-3" /><path
         fill-rule="evenodd"
         clip-rule="evenodd"
         d="m 44.6303,26.2969 c 1.0816,0 2.0321,0.717 2.3293,1.757 l 1.3336,4.6677 c 0.1838,0.6432 -0.1887,1.3136 -0.8319,1.4974 -0.1082,0.0309 -0.2202,0.0466 -0.3327,0.0466 H 34.4027 c -0.669,0 -1.2113,-0.5423 -1.2113,-1.2112 0,-0.1126 0.0157,-0.2246 0.0466,-0.3328 l 1.3337,-4.6677 c 0.2971,-1.04 1.2476,-1.757 2.3292,-1.757 z m -17.5313,0 c 1.0816,0 2.0322,0.717 2.3293,1.757 l 1.3337,4.6677 c 0.1837,0.6432 -0.1887,1.3136 -0.8319,1.4974 -0.1082,0.0309 -0.2202,0.0466 -0.3328,0.0466 H 16.8714 c -0.6689,0 -1.2112,-0.5423 -1.2112,-1.2112 0,-0.1126 0.0156,-0.2246 0.0466,-0.3328 l 1.3336,-4.6677 c 0.2971,-1.04 1.2477,-1.757 2.3293,-1.757 z m 8.7657,-9.5625 c 1.0816,0 2.0321,0.717 2.3293,1.757 l 1.3336,4.6677 c 0.1838,0.6432 -0.1887,1.3136 -0.8319,1.4974 -0.1082,0.0309 -0.2202,0.0466 -0.3327,0.0466 H 25.637 c -0.6689,0 -1.2112,-0.5423 -1.2112,-1.2112 0,-0.1126 0.0157,-0.2246 0.0466,-0.3328 l 1.3336,-4.6677 c 0.2972,-1.04 1.2477,-1.757 2.3293,-1.757 z"
         fill="#017de8"
         id="path3-3"
         style="fill:#04a55d;fill-opacity:1" /><path
         fill-rule="evenodd"
         clip-rule="evenodd"
         d="m 46.0002,51.4727 v 9.6893 c 0,1.1045 -0.8956,2 -2.0002,2 -0.2292,0 -0.4568,-0.0395 -0.6727,-0.1166 L 33.0092,59.3603 c -0.6525,-0.233 -1.3656,-0.233 -2.0181,0 L 20.6727,63.0455 C 19.6324,63.417 18.488,62.8749 18.1165,61.8346 18.0394,61.6188 18,61.3912 18,61.162 l 7e-4,-9.6889 C 22.166,53.7229 26.9338,55 32,55 c 5.0665,0 9.8347,-1.2773 14.0002,-3.5273 z"
         fill="#cfd2d5"
         id="path5-62" /><path
         fill-rule="evenodd"
         clip-rule="evenodd"
         d="m 46.0002,51.4727 v 9.6893 c 0,1.1045 -0.8956,2 -2.0002,2 -0.2292,0 -0.4568,-0.0395 -0.6727,-0.1166 L 33.0092,59.3603 c -0.6525,-0.233 -1.3656,-0.233 -2.0181,0 L 20.6727,63.0455 C 19.6324,63.417 18.488,62.8749 18.1165,61.8346 18.0394,61.6188 18,61.3912 18,61.162 l 7e-4,-9.6889 C 22.166,53.7229 26.9338,55 32,55 c 5.0665,0 9.8347,-1.2773 14.0002,-3.5273 z"
         fill="url(#paint2_linear_922_7166)"
         fill-opacity="0.4"
         style="mix-blend-mode:soft-light;fill:url(#linearGradient14)"
         id="path6-7" /></g></g></svg>
