<?xml version="1.0" encoding="UTF-8" standalone="no"?>
<!-- Created with Inkscape (http://www.inkscape.org/) -->

<svg
   width="15.610416mm"
   height="14.816667mm"
   viewBox="0 0 15.610416 14.816667"
   version="1.1"
   id="svg1"
   xml:space="preserve"
   xmlns="http://www.w3.org/2000/svg"
   xmlns:svg="http://www.w3.org/2000/svg"><defs
     id="defs1"><linearGradient
       id="paint0_linear_21827_48847"
       x1="2.5"
       y1="35"
       x2="20.931601"
       y2="43.109901"
       gradientUnits="userSpaceOnUse"><stop
         stop-color="white"
         id="stop8" /><stop
         offset="1"
         id="stop9" /></linearGradient><linearGradient
       id="paint2_linear_21827_48847"
       x1="34.5"
       y1="20"
       x2="52.931599"
       y2="28.1099"
       gradientUnits="userSpaceOnUse"><stop
         stop-color="white"
         id="stop12" /><stop
         offset="1"
         id="stop13" /></linearGradient></defs><g
     id="layer1"
     transform="translate(-175.37443,-65.063223)"><g
       style="fill:none"
       id="g1"
       transform="matrix(0.26458333,0,0,0.26458333,174.71297,64.00489)"><path
         fill-rule="evenodd"
         clip-rule="evenodd"
         d="m 6.5,35 h 3 c 2.2091,0 4,1.7909 4,4 v 17 c 0,2.2091 -1.7909,4 -4,4 h -3 c -2.20914,0 -4,-1.7909 -4,-4 V 39 c 0,-2.2091 1.79086,-4 4,-4 z"
         fill="#e7e8ea"
         id="path1" /><path
         fill-rule="evenodd"
         clip-rule="evenodd"
         d="m 6.5,35 h 3 c 2.2091,0 4,1.7909 4,4 v 17 c 0,2.2091 -1.7909,4 -4,4 h -3 c -2.20914,0 -4,-1.7909 -4,-4 V 39 c 0,-2.2091 1.79086,-4 4,-4 z"
         fill="url(#paint0_linear_21827_48847)"
         fill-opacity="0.4"
         style="mix-blend-mode:soft-light;fill:url(#paint0_linear_21827_48847)"
         id="path2" /><path
         fill-rule="evenodd"
         clip-rule="evenodd"
         d="m 22.5,14 h 3 c 2.2091,0 4,1.7909 4,4 v 29 c 0,2.2091 -1.7909,4 -4,4 h -3 c -2.2091,0 -4,-1.7909 -4,-4 V 18 c 0,-2.2091 1.7909,-4 4,-4 z"
         fill="#017de8"
         id="path3"
         style="fill:#04a55d;fill-opacity:1" /><path
         fill-rule="evenodd"
         clip-rule="evenodd"
         d="m 38.5,20 h 3 c 2.2091,0 4,1.7909 4,4 v 17 c 0,2.2091 -1.7909,4 -4,4 h -3 c -2.2091,0 -4,-1.7909 -4,-4 V 24 c 0,-2.2091 1.7909,-4 4,-4 z"
         fill="#e7e8ea"
         id="path5" /><path
         fill-rule="evenodd"
         clip-rule="evenodd"
         d="m 38.5,20 h 3 c 2.2091,0 4,1.7909 4,4 v 17 c 0,2.2091 -1.7909,4 -4,4 h -3 c -2.2091,0 -4,-1.7909 -4,-4 V 24 c 0,-2.2091 1.7909,-4 4,-4 z"
         fill="url(#paint2_linear_21827_48847)"
         fill-opacity="0.4"
         style="mix-blend-mode:soft-light;fill:url(#paint2_linear_21827_48847)"
         id="path6" /><path
         fill-rule="evenodd"
         clip-rule="evenodd"
         d="m 54.5,4 h 3 c 2.2091,0 4,1.79086 4,4 v 26 c 0,2.2091 -1.7909,4 -4,4 h -3 c -2.2091,0 -4,-1.7909 -4,-4 V 8 c 0,-2.20914 1.7909,-4 4,-4 z"
         fill="#017de8"
         id="path7"
         style="fill:#04a55d;fill-opacity:1" /></g></g></svg>
