<?xml version="1.0" encoding="UTF-8" standalone="no"?>
<!-- Created with Inkscape (http://www.inkscape.org/) -->

<svg
   width="14.287499mm"
   height="16.933332mm"
   viewBox="0 0 14.287499 16.933332"
   version="1.1"
   id="svg1"
   xml:space="preserve"
   xmlns="http://www.w3.org/2000/svg"
   xmlns:svg="http://www.w3.org/2000/svg"><defs
     id="defs1"><linearGradient
       id="paint0_linear_21827_48885"
       x1="5"
       y1="0"
       x2="68.087303"
       y2="53.2299"
       gradientUnits="userSpaceOnUse"><stop
         stop-color="white"
         id="stop5-9" /><stop
         offset="1"
         id="stop6-3" /></linearGradient></defs><g
     id="layer1"
     transform="translate(-124.26678,-116.40277)"><g
       style="fill:none"
       id="g9"
       transform="matrix(0.26458333,0,0,0.26458333,122.94386,116.40277)"><path
         fill-rule="evenodd"
         clip-rule="evenodd"
         d="M 5.00137,33.0011 5,5 C 5,2.23858 7.23858,0 10,0 h 44 c 2.7614,0 5,2.23858 5,5 V 33 C 58.874,47.0113 50.2355,57.2127 33.0831,63.6054 L 32,64 C 14.1281,57.6361 5.1286,47.3032 5.00137,33.0011 Z"
         fill="#e7e8ea"
         id="path1-0" /><path
         fill-rule="evenodd"
         clip-rule="evenodd"
         d="M 5.00137,33.0011 5,5 C 5,2.23858 7.23858,0 10,0 h 44 c 2.7614,0 5,2.23858 5,5 V 33 C 58.874,47.0113 50.2355,57.2127 33.0831,63.6054 L 32,64 C 14.1281,57.6361 5.1286,47.3032 5.00137,33.0011 Z"
         fill="url(#paint0_linear_21827_48885)"
         fill-opacity="0.4"
         style="mix-blend-mode:soft-light;fill:url(#paint0_linear_21827_48885)"
         id="path2-96" /><path
         d="m 32,47 c 9.9411,0 18,-8.0589 18,-18 0,-9.9411 -8.0589,-18 -18,-18 -9.9411,0 -18,8.0589 -18,18 0,9.9411 8.0589,18 18,18 z"
         fill="#017de8"
         id="path3-94"
         style="fill:#04a55d;fill-opacity:1" /><path
         fill-rule="evenodd"
         clip-rule="evenodd"
         d="M 31.8983,19.0009 32,19 c 3.0248,0 5.4833,2.3767 5.5375,5.3288 l 10e-4,3.4172 c 1.3594,0 2.4615,1.0802 2.4615,2.4127 v 5.4286 C 40,36.9198 38.8979,38 37.5385,38 H 26.4615 C 25.1021,38 24,36.9198 24,35.5873 v -5.4286 c 0,-1.3325 1.1021,-2.4127 2.4615,-2.4127 v -3.3174 c 0,-2.9648 2.4249,-5.3745 5.4368,-5.4277 z M 32,22.0159 c -1.3338,0 -2.4199,1.0398 -2.4604,2.3375 L 29.538,27.746 h 4.923 l 5e-4,-3.3174 c 0,-1.2668 -0.996,-2.3056 -2.2623,-2.4049 l -0.0763,-0.0049 z"
         fill="#ffffff"
         id="path5-2" /></g></g></svg>
