<?xml version="1.0" encoding="UTF-8" standalone="no"?>
<!-- Created with Inkscape (http://www.inkscape.org/) -->

<svg
   width="15.610416mm"
   height="15.636901mm"
   viewBox="0 0 15.610416 15.636901"
   version="1.1"
   id="svg1"
   xml:space="preserve"
   xmlns="http://www.w3.org/2000/svg"
   xmlns:svg="http://www.w3.org/2000/svg"><defs
     id="defs1"><linearGradient
       id="paint0_linear_1606_497"
       x1="2.5"
       y1="3"
       x2="61.5"
       y2="62"
       gradientUnits="userSpaceOnUse"><stop
         stop-color="white"
         id="stop6-1" /><stop
         offset="1"
         id="stop7-8" /></linearGradient><linearGradient
       id="paint1_linear_1606_497"
       x1="27.5"
       y1="28"
       x2="61.5"
       y2="62"
       gradientUnits="userSpaceOnUse"><stop
         stop-color="white"
         id="stop8-9" /><stop
         offset="1"
         id="stop9-8" /></linearGradient></defs><g
     id="layer1"
     transform="translate(-194.23767,-57.946177)"><g
       style="fill:none"
       id="g6"
       transform="matrix(0.26458333,0,0,0.26458333,193.57621,57.178912)"><path
         fill-rule="evenodd"
         clip-rule="evenodd"
         d="M 32,12 C 20.6782,12 11.5,21.1782 11.5,32.5 11.5,43.8218 20.6782,53 32,53 43.3218,53 52.5,43.8218 52.5,32.5 52.5,21.1782 43.3218,12 32,12 Z M 2.5,32.5 C 2.5,16.2076 15.7076,3 32,3 48.2924,3 61.5,16.2076 61.5,32.5 61.5,48.7924 48.2924,62 32,62 15.7076,62 2.5,48.7924 2.5,32.5 Z"
         fill="#e7e8ea"
         id="path1-3" /><path
         fill-rule="evenodd"
         clip-rule="evenodd"
         d="M 32,12 C 20.6782,12 11.5,21.1782 11.5,32.5 11.5,43.8218 20.6782,53 32,53 43.3218,53 52.5,43.8218 52.5,32.5 52.5,21.1782 43.3218,12 32,12 Z M 2.5,32.5 C 2.5,16.2076 15.7076,3 32,3 48.2924,3 61.5,16.2076 61.5,32.5 61.5,48.7924 48.2924,62 32,62 15.7076,62 2.5,48.7924 2.5,32.5 Z"
         fill="url(#paint0_linear_1606_497)"
         fill-opacity="0.4"
         style="mix-blend-mode:soft-light;fill:url(#paint0_linear_1606_497)"
         id="path2-5" /><path
         fill-rule="evenodd"
         clip-rule="evenodd"
         d="m 57,28 c 2.4853,0 4.5,2.0147 4.5,4.5 C 61.5,48.7924 48.2924,62 32,62 29.5147,62 27.5,59.9853 27.5,57.5 27.5,55.0147 29.5147,53 32,53 43.3218,53 52.5,43.8218 52.5,32.5 52.5,30.0147 54.5147,28 57,28 Z"
         fill="#cfd2d5"
         id="path3-1" /><path
         fill-rule="evenodd"
         clip-rule="evenodd"
         d="m 57,28 c 2.4853,0 4.5,2.0147 4.5,4.5 C 61.5,48.7924 48.2924,62 32,62 29.5147,62 27.5,59.9853 27.5,57.5 27.5,55.0147 29.5147,53 32,53 43.3218,53 52.5,43.8218 52.5,32.5 52.5,30.0147 54.5147,28 57,28 Z"
         fill="url(#paint1_linear_1606_497)"
         fill-opacity="0.4"
         style="mix-blend-mode:soft-light;fill:url(#paint1_linear_1606_497)"
         id="path4-71" /><path
         fill-rule="evenodd"
         clip-rule="evenodd"
         d="m 27.5,7.3999 c 0,-2.48528 2.0147,-4.5 4.5,-4.5 16.2924,0 29.5,13.2076 29.5,29.5 0,2.4853 -2.0147,4.5 -4.5,4.5 -2.4853,0 -4.5,-2.0147 -4.5,-4.5 0,-11.3218 -9.1782,-20.5 -20.5,-20.5 -2.4853,0 -4.5,-2.01472 -4.5,-4.5 z"
         fill="#017de8"
         id="path5-4"
         style="fill:#04a55d;fill-opacity:1" /></g></g></svg>
