<?xml version="1.0" encoding="UTF-8" standalone="no"?>
<!-- Created with Inkscape (http://www.inkscape.org/) -->

<svg
   width="16.933332mm"
   height="15.875mm"
   viewBox="0 0 16.933332 15.875"
   version="1.1"
   id="svg1"
   xml:space="preserve"
   xmlns="http://www.w3.org/2000/svg"
   xmlns:svg="http://www.w3.org/2000/svg"><defs
     id="defs1"><linearGradient
       id="paint0_linear_922_11386"
       x1="13.25"
       y1="54.75"
       x2="15.6014"
       y2="68.858101"
       gradientUnits="userSpaceOnUse"><stop
         stop-color="white"
         id="stop12-0" /><stop
         offset="1"
         id="stop13-6" /></linearGradient><linearGradient
       id="paint1_linear_922_11386"
       x1="6"
       y1="4"
       x2="56.5811"
       y2="61.523602"
       gradientUnits="userSpaceOnUse"><stop
         stop-color="white"
         id="stop14-6" /><stop
         offset="1"
         id="stop15-7" /></linearGradient><linearGradient
       id="paint2_linear_922_11386"
       x1="11"
       y1="10"
       x2="49.330799"
       y2="56.1936"
       gradientUnits="userSpaceOnUse"><stop
         stop-color="white"
         id="stop16-4" /><stop
         offset="1"
         id="stop17-8" /></linearGradient><linearGradient
       id="paint4_linear_922_11386"
       x1="6"
       y1="2"
       x2="27.153799"
       y2="6.2307701"
       gradientUnits="userSpaceOnUse"><stop
         stop-color="white"
         id="stop20-3" /><stop
         offset="1"
         id="stop21" /></linearGradient><linearGradient
       id="paint5_linear_922_11386"
       x1="0"
       y1="17"
       x2="11.3464"
       y2="19.723101"
       gradientUnits="userSpaceOnUse"><stop
         stop-color="white"
         id="stop22" /><stop
         offset="1"
         id="stop23" /></linearGradient></defs><g
     id="layer1"
     transform="translate(-51.263559,-119.76143)"><g
       style="fill:none"
       id="g5"
       transform="matrix(0.26458333,0,0,0.26458333,51.263559,119.23226)"><path
         fill-rule="evenodd"
         clip-rule="evenodd"
         d="m 13.25,54.75 h 14.5 v 2.75 c 0,2.4853 -2.0147,4.5 -4.5,4.5 h -5.5 c -2.4853,0 -4.5,-2.0147 -4.5,-4.5 z m 29,0 h 14.5 v 2.75 c 0,2.4853 -2.0147,4.5 -4.5,4.5 h -5.5 c -2.4853,0 -4.5,-2.0147 -4.5,-4.5 z"
         fill="#cfd2d5"
         id="path1-95" /><path
         fill-rule="evenodd"
         clip-rule="evenodd"
         d="m 13.25,54.75 h 14.5 v 2.75 c 0,2.4853 -2.0147,4.5 -4.5,4.5 h -5.5 c -2.4853,0 -4.5,-2.0147 -4.5,-4.5 z m 29,0 h 14.5 v 2.75 c 0,2.4853 -2.0147,4.5 -4.5,4.5 h -5.5 c -2.4853,0 -4.5,-2.0147 -4.5,-4.5 z"
         fill="url(#paint0_linear_922_11386)"
         fill-opacity="0.4"
         style="mix-blend-mode:soft-light;fill:url(#paint0_linear_922_11386)"
         id="path2-92" /><path
         d="M 59,4 H 11 C 8.23858,4 6,6.23858 6,9 v 41 c 0,2.7614 2.23858,5 5,5 h 48 c 2.7614,0 5,-2.2386 5,-5 V 9 C 64,6.23858 61.7614,4 59,4 Z"
         fill="#e7e8ea"
         id="path3-2" /><path
         d="M 59,4 H 11 C 8.23858,4 6,6.23858 6,9 v 41 c 0,2.7614 2.23858,5 5,5 h 48 c 2.7614,0 5,-2.2386 5,-5 V 9 C 64,6.23858 61.7614,4 59,4 Z"
         fill="url(#paint1_linear_922_11386)"
         fill-opacity="0.4"
         style="mix-blend-mode:soft-light;fill:url(#paint1_linear_922_11386)"
         id="path4-6" /><path
         d="M 55,10 H 14 c -1.6569,0 -3,1.3431 -3,3 v 33 c 0,1.6569 1.3431,3 3,3 h 41 c 1.6569,0 3,-1.3431 3,-3 V 13 c 0,-1.6569 -1.3431,-3 -3,-3 z"
         fill="#cfd2d5"
         id="path5-3" /><path
         d="M 55,10 H 14 c -1.6569,0 -3,1.3431 -3,3 v 33 c 0,1.6569 1.3431,3 3,3 h 41 c 1.6569,0 3,-1.3431 3,-3 V 13 c 0,-1.6569 -1.3431,-3 -3,-3 z"
         fill="url(#paint2_linear_922_11386)"
         fill-opacity="0.4"
         style="mix-blend-mode:soft-light;fill:url(#paint2_linear_922_11386)"
         id="path6-2" /><path
         fill-rule="evenodd"
         clip-rule="evenodd"
         d="m 23.0775,40 c 1.057,0 1.9895,0.6915 2.2966,1.7028 l 1.1558,3.8074 c 0.1925,0.6342 -0.1655,1.3044 -0.7997,1.4969 -0.113,0.0343 -0.2305,0.0517 -0.3486,0.0517 H 13.6183 c -0.6627,0 -1.2,-0.5372 -1.2,-1.2 0,-0.1181 0.0175,-0.2355 0.0518,-0.3486 l 1.1558,-3.8074 C 13.9329,40.6915 14.8655,40 15.9224,40 Z m 15,0 c 1.057,0 1.9895,0.6915 2.2966,1.7028 l 1.1558,3.8074 c 0.1925,0.6342 -0.1655,1.3044 -0.7997,1.4969 -0.113,0.0343 -0.2305,0.0517 -0.3486,0.0517 H 28.6183 c -0.6627,0 -1.2,-0.5372 -1.2,-1.2 0,-0.1181 0.0175,-0.2355 0.0518,-0.3486 l 1.1558,-3.8074 C 28.9329,40.6915 29.8655,40 30.9224,40 Z m 15,0 c 1.057,0 1.9895,0.6915 2.2966,1.7028 l 1.1558,3.8074 c 0.1925,0.6342 -0.1655,1.3044 -0.7997,1.4969 -0.113,0.0343 -0.2305,0.0517 -0.3486,0.0517 H 43.6183 c -0.6627,0 -1.2,-0.5372 -1.2,-1.2 0,-0.1181 0.0175,-0.2355 0.0518,-0.3486 l 1.1558,-3.8074 C 43.9329,40.6915 44.8655,40 45.9224,40 Z m -22,-8 c 1.057,0 1.9895,0.6915 2.2966,1.7028 l 1.1558,3.8074 c 0.1925,0.6342 -0.1655,1.3044 -0.7997,1.4969 -0.113,0.0343 -0.2305,0.0517 -0.3486,0.0517 H 21.6183 c -0.6627,0 -1.2,-0.5372 -1.2,-1.2 0,-0.1181 0.0175,-0.2355 0.0518,-0.3486 l 1.1558,-3.8074 C 21.9329,32.6915 22.8655,32 23.9224,32 Z m 15,0 c 1.057,0 1.9895,0.6915 2.2966,1.7028 l 1.1558,3.8074 c 0.1925,0.6342 -0.1655,1.3044 -0.7997,1.4969 -0.113,0.0343 -0.2305,0.0517 -0.3486,0.0517 H 36.6183 c -0.6627,0 -1.2,-0.5372 -1.2,-1.2 0,-0.1181 0.0175,-0.2355 0.0518,-0.3486 l 1.1558,-3.8074 C 36.9329,32.6915 37.8655,32 38.9224,32 Z m -8,-8 c 1.057,0 1.9895,0.6915 2.2966,1.7028 l 1.1558,3.8074 c 0.1925,0.6342 -0.1655,1.3044 -0.7997,1.4969 -0.113,0.0343 -0.2305,0.0517 -0.3486,0.0517 H 28.6183 c -0.6627,0 -1.2,-0.5372 -1.2,-1.2 0,-0.1181 0.0175,-0.2355 0.0518,-0.3486 l 1.1558,-3.8074 C 28.9329,24.6915 29.8655,24 30.9224,24 Z"
         fill="#017de8"
         id="path7-4"
         style="fill:#04a55d;fill-opacity:1" /><path
         d="M 14,2 H 9 C 7.34315,2 6,3.34315 6,5 v 49 c 0,1.6569 1.34315,3 3,3 h 5 c 1.6569,0 3,-1.3431 3,-3 V 5 C 17,3.34315 15.6569,2 14,2 Z"
         fill="#cfd2d5"
         id="path9-2" /><path
         d="M 14,2 H 9 C 7.34315,2 6,3.34315 6,5 v 49 c 0,1.6569 1.34315,3 3,3 h 5 c 1.6569,0 3,-1.3431 3,-3 V 5 C 17,3.34315 15.6569,2 14,2 Z"
         fill="url(#paint4_linear_922_11386)"
         fill-opacity="0.4"
         style="mix-blend-mode:soft-light;fill:url(#paint4_linear_922_11386)"
         id="path10-3" /><path
         fill-rule="evenodd"
         clip-rule="evenodd"
         d="M 5,17 H 6 V 42 H 5 C 2.23858,42 0,39.7614 0,37 V 22 c 0,-2.7614 2.23858,-5 5,-5 z"
         fill="#cfd2d5"
         id="path11-2" /><path
         fill-rule="evenodd"
         clip-rule="evenodd"
         d="M 5,17 H 6 V 42 H 5 C 2.23858,42 0,39.7614 0,37 V 22 c 0,-2.7614 2.23858,-5 5,-5 z"
         fill="url(#paint5_linear_922_11386)"
         fill-opacity="0.4"
         style="mix-blend-mode:soft-light;fill:url(#paint5_linear_922_11386)"
         id="path12" /></g></g></svg>
