<?xml version="1.0" encoding="UTF-8" standalone="no"?>
<!-- Created with Inkscape (http://www.inkscape.org/) -->

<svg
   width="16.933332mm"
   height="14.81656mm"
   viewBox="0 0 16.933332 14.81656"
   version="1.1"
   id="svg1"
   xml:space="preserve"
   xmlns="http://www.w3.org/2000/svg"
   xmlns:svg="http://www.w3.org/2000/svg"><defs
     id="defs1"><linearGradient
       id="paint0_linear_905_5866"
       x1="0"
       y1="18.6152"
       x2="36.451698"
       y2="76.382797"
       gradientUnits="userSpaceOnUse"><stop
         stop-color="white"
         id="stop4-2" /><stop
         offset="1"
         id="stop5-3" /></linearGradient></defs><g
     id="layer1"
     transform="translate(-74.528218,-53.326151)"><g
       style="fill:none"
       id="g12"
       transform="matrix(0.26458333,0,0,0.26458333,74.528218,52.5324)"><g
         id="Group-7"><g
           id="Vector-4"><path
             fill-rule="evenodd"
             clip-rule="evenodd"
             d="M 0.941064,53.4964 22.1012,32.2656 c 1.2547,-1.2589 3.2891,-1.2589 4.5438,0 l 7.3312,7.3557 c 1.2547,1.2589 3.2891,1.2589 4.5438,0 L 58.5151,19.5594 c 1.2547,-1.2589 3.2891,-1.2589 4.5438,0 C 63.6615,20.164 64,20.984 64,21.839 v 33.9369 c 0,1.7804 -1.4385,3.2237 -3.213,3.2237 H 3.21299 C 1.43851,58.9996 0,57.5563 0,55.7759 c 0,-0.855 0.338511,-1.675 0.941064,-2.2795 z"
             fill="#e7e8ea"
             id="path1-00" /><path
             fill-rule="evenodd"
             clip-rule="evenodd"
             d="M 0.941064,53.4964 22.1012,32.2656 c 1.2547,-1.2589 3.2891,-1.2589 4.5438,0 l 7.3312,7.3557 c 1.2547,1.2589 3.2891,1.2589 4.5438,0 L 58.5151,19.5594 c 1.2547,-1.2589 3.2891,-1.2589 4.5438,0 C 63.6615,20.164 64,20.984 64,21.839 v 33.9369 c 0,1.7804 -1.4385,3.2237 -3.213,3.2237 H 3.21299 C 1.43851,58.9996 0,57.5563 0,55.7759 c 0,-0.855 0.338511,-1.675 0.941064,-2.2795 z"
             fill="url(#paint0_linear_905_5866)"
             fill-opacity="0.4"
             style="mix-blend-mode:soft-light;fill:url(#paint0_linear_905_5866)"
             id="path2-48" /></g><g
           id="Vector_2-3"><path
             fill-rule="evenodd"
             clip-rule="evenodd"
             d="m 59.5863,3.58579 c 0.781,-0.78105 2.0473,-0.78105 2.8284,0 0.7399,0.73994 0.7789,1.91542 0.1168,2.70121 L 62.4147,6.41421 39.0431,29.7858 c -1.5101,1.5101 -3.927,1.5604 -5.4975,0.151 L 33.3862,29.7858 24.6647,21.0643 4.70523,41.0237 c -0.78105,0.7811 -2.04738,0.7811 -2.82843,0 C 1.13686,40.2838 1.09792,39.1083 1.75997,38.3225 L 1.8768,38.1953 21.8362,18.2359 c 1.5101,-1.5101 3.927,-1.5604 5.4975,-0.151 l 0.1594,0.151 8.7215,8.7215 z"
             fill="#017de8"
             id="path3-24"
             style="fill:#04a55d;fill-opacity:1" /></g></g></g></g></svg>
